<?xml version="1.0" standalone="no"?>
<!DOCTYPE svg PUBLIC "-//W3C//DTD SVG 20010904//EN" "http://www.w3.org/TR/2001/REC-SVG-20010904/DTD/svg10.dtd">
<svg xmlns="http://www.w3.org/2000/svg" version="1.0" width="202.000000pt" height="137.000000pt" viewBox="0 0 202.000000 137.000000" preserveAspectRatio="xMidYMid meet">
<metadata>
Created by potrace 1.16, written by Peter Selinger 2001-2019
<meta name="Producer" content="Online-Convert"/></metadata>
<g transform="translate(0.000000,137.000000) scale(0.100000,-0.100000)" fill="#000000" stroke="none">
<path d="M300 1147 c-14 -7 -31 -25 -39 -41 -13 -27 -10 -36 64 -185 l77 -156 -77 -156 c-75 -149 -77 -157 -64 -185 22 -46 56 -51 161 -26 50 13 95 19 98 15 4 -4 16 -34 25 -66 23 -75 44 -100 81 -100 36 0 1030 427 1062 456 12 12 22 32 22 48 0 63 14 58 -710 239 -371 93 -675 169 -675 170 0 0 -11 -6 -25 -13z m671 -197 c354 -88 654 -165 667 -170 12 -5 22 -18 22 -28 0 -15 -100 -62 -514 -241 -283 -123 -519 -220 -524 -217 -11 6 -57 135 -51 140 2 2 182 47 399 101 217 54 403 102 413 107 23 12 17 32 -10 36 -11 2 -245 -54 -521 -123 -276 -69 -511 -125 -522 -125 -11 0 -23 6 -26 14 -3 7 27 77 65 155 l71 141 468 0 c474 0 498 2 485 36 -4 12 -85 14 -477 14 l-471 0 -73 146 c-59 117 -71 148 -62 160 7 7 14 14 15 14 2 0 293 -72 646 -160z"/>
</g>
</svg>
