<?xml version="1.0" standalone="no"?>
<!DOCTYPE svg PUBLIC "-//W3C//DTD SVG 20010904//EN" "http://www.w3.org/TR/2001/REC-SVG-20010904/DTD/svg10.dtd">
<svg xmlns="http://www.w3.org/2000/svg" version="1.0" width="194.000000pt" height="143.000000pt" viewBox="0 0 194.000000 143.000000" preserveAspectRatio="xMidYMid meet">
<metadata>
Created by potrace 1.16, written by Peter Selinger 2001-2019
<meta name="Producer" content="Online-Convert"/></metadata>
<g transform="translate(0.000000,143.000000) scale(0.100000,-0.100000)" fill="#000000" stroke="none">
<path d="M339 1164 c-11 -13 -2 -37 64 -170 l77 -154 497 0 c274 0 504 -4 512 -9 8 -5 11 -16 8 -25 -6 -14 -57 -16 -509 -16 l-503 0 -79 -154 c-79 -155 -87 -186 -46 -186 11 0 263 61 560 135 297 74 547 135 555 135 20 0 32 -30 15 -40 -6 -4 -207 -56 -445 -115 l-433 -107 24 -71 c13 -39 28 -75 33 -80 12 -12 1108 461 1116 482 3 8 0 20 -7 26 -7 7 -323 90 -703 184 -379 94 -697 174 -706 177 -9 2 -22 -3 -30 -12z"/>
</g>
</svg>
